# xmcd CD database file generated by Grip 3.2.0
# 
# Track frame offsets:
#       150
#       10892
#       25166
#       39980
#       53744
#       67308
#       79793
#       94319
#       104658
#       121461
#       133834
#       147232
#       162610
#       176485
#       188763
#       203239
#       216958
#       228584
# 
# Disc length: 3219 seconds
# 
# Revision: 2
# Processed by: cddbd v1.5.1PL2 Copyright (c) Steve Scherf et al.
# Submitted via: Grip 3.2.0
# 
DISCID=0d0c9112
DTITLE=Various Artist - The greatest Era in Jazz from Swing to BebopCD4
DYEAR=2004
DGENRE=Jazz
TTITLE0=Nat King Cole - Don't Blame Me
TTITLE1=Oscar Peterson - Back Home Again In Indiana
TTITLE2=Perry Como - A Dreamer's Holiday
TTITLE3=Buster Bailey - Coquette
TTITLE4=Louis Armstrong - Do You Know What it Means To Miss New Orleans
TTITLE5=Bud Freeman - Copenhagen
TTITLE6=Woody Herman - Four Brothers
TTITLE7=Bob Crosby - How 'dja Like To Love Me
TTITLE8=Wild Bill Davidson - As Long As I Live
TTITLE9=Big Joe Turner - Hollywood Bed
TTITLE10=Coleman Hawkins - (Its No) Sin
TTITLE11=Errol Garner - Honeysuckle Rose
TTITLE12=Mills Brothers - Doin' The New Low-Down
TTITLE13=Ivie Anderson - Alabamy Home
TTITLE14=Fats Waller - B Flat Blues
TTITLE15=Bud Freeman - After A While
TTITLE16=Mezz Mezzerow - Hot Club Stomp
TTITLE17=Kid Ory - 29th And Dearborn
EXTD=
EXTT0=
EXTT1=
EXTT2=
EXTT3=
EXTT4=
EXTT5=
EXTT6=
EXTT7=
EXTT8=
EXTT9=
EXTT10=
EXTT11=
EXTT12=
EXTT13=
EXTT14=
EXTT15=
EXTT16=
EXTT17=
PLAYORDER=
